<svg xmlns="http://www.w3.org/2000/svg" viewBox="0 0 100 100">
  <title>Filmstrip</title>
  <rect x="0" y="10" width="100" height="80" rx="6" fill="#0D0D0D"/>
  <rect x="4" y="26" width="92" height="48" fill="#1B1B1B"/>
  <rect class="frame" x="4" y="26" width="16" height="48" fill="#E3D84A"/>
  <rect class="frame" x="23" y="26" width="16" height="48" fill="#3FB8C5"/>
  <rect class="frame" x="42" y="26" width="16" height="48" fill="#0C7C59"/>
  <rect class="frame" x="61" y="26" width="16" height="48" fill="#A8478F"/>
  <rect class="frame" x="80" y="26" width="16" height="48" fill="#D72638"/>
  <g class="sprockets" fill="#8D8A85">
    <rect x="8" y="14" width="8" height="8" rx="2"/>
    <rect x="27" y="14" width="8" height="8" rx="2"/>
    <rect x="46" y="14" width="8" height="8" rx="2"/>
    <rect x="65" y="14" width="8" height="8" rx="2"/>
    <rect x="84" y="14" width="8" height="8" rx="2"/>
    <rect x="8" y="78" width="8" height="8" rx="2"/>
    <rect x="27" y="78" width="8" height="8" rx="2"/>
    <rect x="46" y="78" width="8" height="8" rx="2"/>
    <rect x="65" y="78" width="8" height="8" rx="2"/>
    <rect x="84" y="78" width="8" height="8" rx="2"/>
  </g>
</svg>
