<svg xmlns="http://www.w3.org/2000/svg" viewBox="0 0 100 100">
  <title>Filmstrip</title>
  <rect x="0" y="10" width="100" height="80" rx="6" fill="#0D0D0D"/>
  <rect x="4" y="26" width="92" height="48" fill="#1B1B1B"/>
  <rect x="4.00" y="26" width="13.14" height="48" fill="#F2F2F2"/>
  <rect x="17.14" y="26" width="13.14" height="48" fill="#E3D84A"/>
  <rect x="30.28" y="26" width="13.14" height="48" fill="#3FB8C5"/>
  <rect x="43.42" y="26" width="13.14" height="48" fill="#0C7C59"/>
  <rect x="56.56" y="26" width="13.14" height="48" fill="#A8478F"/>
  <rect x="69.70" y="26" width="13.14" height="48" fill="#D72638"/>
  <rect x="82.84" y="26" width="13.14" height="48" fill="#3F88C5"/>
  <g fill="#8D8A85">
    <rect x="7" y="14" width="8" height="8" rx="2"/>
    <rect x="26.5" y="14" width="8" height="8" rx="2"/>
    <rect x="46" y="14" width="8" height="8" rx="2"/>
    <rect x="65.5" y="14" width="8" height="8" rx="2"/>
    <rect x="85" y="14" width="8" height="8" rx="2"/>
    <rect x="7" y="78" width="8" height="8" rx="2"/>
    <rect x="26.5" y="78" width="8" height="8" rx="2"/>
    <rect x="46" y="78" width="8" height="8" rx="2"/>
    <rect x="65.5" y="78" width="8" height="8" rx="2"/>
    <rect x="85" y="78" width="8" height="8" rx="2"/>
  </g>
</svg>
